<svg xmlns="http://www.w3.org/2000/svg" width="163" height="60.422" viewBox="0 0 163 60.422">
  <g id="Grupo_637" data-name="Grupo 637" transform="translate(783.797 -326.745)">
    <path id="Caminho_1164" data-name="Caminho 1164" d="M-769.745,571.484a7.026,7.026,0,0,1-7.026,7.026,7.026,7.026,0,0,1-7.026-7.026,7.026,7.026,0,0,1,7.026-7.026,7.026,7.026,0,0,1,7.026,7.026" transform="translate(0 -191.342)" fill="#fff"/>
    <path id="Caminho_1165" data-name="Caminho 1165" d="M-776.771,326.746a7.026,7.026,0,0,0-7.026,7.026v30.914a7.026,7.026,0,0,0,7.026,7.026,7.026,7.026,0,0,0,7.026-7.026V333.772a7.026,7.026,0,0,0-7.026-7.026" transform="translate(0 -0.001)" fill="#fff"/>
    <path id="Caminho_1166" data-name="Caminho 1166" d="M-666.619,326.746h-30.914a7.026,7.026,0,0,0-7.026,7.026,7.026,7.026,0,0,0,7.026,7.026h8.431v23.888a7.026,7.026,0,0,0,7.026,7.026,7.026,7.026,0,0,0,7.026-7.026V340.8h8.431a7.026,7.026,0,0,0,7.026-7.026,7.026,7.026,0,0,0-7.026-7.026" transform="translate(-63.781 -0.001)" fill="#fff"/>
    <path id="Caminho_1167" data-name="Caminho 1167" d="M-188.378,371.711a11.957,11.957,0,0,1-11.944-11.944h2.81a9.144,9.144,0,0,0,9.134,9.134,9.144,9.144,0,0,0,9.133-9.134c0-4.691-3.175-7.775-9.438-9.167-7.506-1.668-11.639-5.9-11.639-11.911a11.957,11.957,0,0,1,11.944-11.944,11.958,11.958,0,0,1,11.944,11.944h-2.811a9.144,9.144,0,0,0-9.133-9.134,9.144,9.144,0,0,0-9.134,9.134c0,5.843,5.133,8.21,9.438,9.167a17.461,17.461,0,0,1,8.3,3.961,10.478,10.478,0,0,1,3.342,7.949,11.958,11.958,0,0,1-11.944,11.944" transform="translate(-469.656)" fill="#fff"/>
    <path id="Caminho_1168" data-name="Caminho 1168" d="M-447.7,371.711a11.957,11.957,0,0,1-11.944-11.944V338.689A11.957,11.957,0,0,1-447.7,326.745a11.957,11.957,0,0,1,11.944,11.944h-2.81a9.144,9.144,0,0,0-9.134-9.134,9.144,9.144,0,0,0-9.134,9.134v21.078A9.144,9.144,0,0,0-447.7,368.9a9.144,9.144,0,0,0,9.134-9.134v-9.134H-448.4v-2.81h12.647v11.944A11.957,11.957,0,0,1-447.7,371.711" transform="translate(-260.92)" fill="#fff"/>
    <path id="Caminho_1169" data-name="Caminho 1169" d="M-294.5,336.759v-2.81h-21.078V376.1H-294.5v-2.81h-18.267V356.432h15.457v-2.811h-15.457V336.759Z" transform="translate(-376.884 -5.799)" fill="#fff"/>
    <path id="Caminho_1170" data-name="Caminho 1170" d="M-70.661,333.949v2.81h10.539V376.1h2.811V336.76h10.539v-2.81Z" transform="translate(-574.024 -5.799)" fill="#fff"/>
  </g>
</svg>
