<svg class="h-8" viewBox="0 0 170.2 116.88" fill="currentColor" xmlns="http://www.w3.org/2000/svg" version="1.1"><path class="text-ks-600" d="M447,514.22A7.82,7.82,0,0,1,441.3,512a6.91,6.91,0,0,1-2.29-5.12,6.69,6.69,0,0,1,2.29-5.05,8,8,0,0,1,5.66-2.14,7.81,7.81,0,0,1,5.5,2.14,6.69,6.69,0,0,1,2.29,5.05,6.91,6.91,0,0,1-2.29,5.12A7.63,7.63,0,0,1,447,514.22Z" transform="translate(-415.06 -441.25)"></path><path class="text-ks-600" d="M447,494.7a7.85,7.85,0,0,1-5.66-2.21,6.93,6.93,0,0,1-2.29-5.13,6.68,6.68,0,0,1,2.29-5,8,8,0,0,1,5.66-2.14,7.76,7.76,0,0,1,5.5,2.14,6.68,6.68,0,0,1,2.29,5,6.93,6.93,0,0,1-2.29,5.13A7.66,7.66,0,0,1,447,494.7Z" transform="translate(-415.06 -441.25)"></path><path class="text-ks-600" d="M447,533.73a7.82,7.82,0,0,1-5.66-2.22,6.89,6.89,0,0,1-2.29-5.12,6.68,6.68,0,0,1,2.29-5,8,8,0,0,1,5.66-2.14,7.76,7.76,0,0,1,5.5,2.14,6.68,6.68,0,0,1,2.29,5,6.89,6.89,0,0,1-2.29,5.12A7.63,7.63,0,0,1,447,533.73Z" transform="translate(-415.06 -441.25)"></path><path class="text-ks-600" d="M447,553.25A7.82,7.82,0,0,1,441.3,551a6.93,6.93,0,0,1-2.29-5.12,6.69,6.69,0,0,1,2.29-5,8,8,0,0,1,5.66-2.14,7.81,7.81,0,0,1,5.5,2.14,6.69,6.69,0,0,1,2.29,5,6.93,6.93,0,0,1-2.29,5.12A7.63,7.63,0,0,1,447,553.25Z" transform="translate(-415.06 -441.25)"></path><path class="text-ks-600" d="M423,533.34a7.85,7.85,0,0,1-5.66-2.21,6.93,6.93,0,0,1-2.29-5.13,6.68,6.68,0,0,1,2.29-5,8,8,0,0,1,5.66-2.14,7.76,7.76,0,0,1,5.5,2.14,6.68,6.68,0,0,1,2.29,5,6.93,6.93,0,0,1-2.29,5.13A7.66,7.66,0,0,1,423,533.34Z" transform="translate(-415.06 -441.25)"></path><path class="text-ks-600" d="M423,552.86a7.82,7.82,0,0,1-5.66-2.22,6.91,6.91,0,0,1-2.29-5.12,6.69,6.69,0,0,1,2.29-5,8,8,0,0,1,5.66-2.14,7.81,7.81,0,0,1,5.5,2.14,6.69,6.69,0,0,1,2.29,5,6.91,6.91,0,0,1-2.29,5.12A7.63,7.63,0,0,1,423,552.86Z" transform="translate(-415.06 -441.25)"></path><path class="text-ks-600" d="M497.06,514.22A7.82,7.82,0,0,1,491.4,512a6.91,6.91,0,0,1-2.29-5.12,6.69,6.69,0,0,1,2.29-5.05,8,8,0,0,1,5.66-2.14,7.81,7.81,0,0,1,5.5,2.14,6.7,6.7,0,0,1,2.3,5.05,6.92,6.92,0,0,1-2.3,5.12A7.63,7.63,0,0,1,497.06,514.22Z" transform="translate(-415.06 -441.25)"></path><path class="text-ks-600" d="M497.06,494.7a7.85,7.85,0,0,1-5.66-2.21,6.93,6.93,0,0,1-2.29-5.13,6.68,6.68,0,0,1,2.29-5,8,8,0,0,1,5.66-2.14,7.76,7.76,0,0,1,5.5,2.14,6.69,6.69,0,0,1,2.3,5,6.94,6.94,0,0,1-2.3,5.13A7.66,7.66,0,0,1,497.06,494.7Z" transform="translate(-415.06 -441.25)"></path><path class="text-ks-600" d="M497.06,475.19A7.82,7.82,0,0,1,491.4,473a6.89,6.89,0,0,1-2.29-5.12,6.69,6.69,0,0,1,2.29-5.05,8,8,0,0,1,5.66-2.14,7.81,7.81,0,0,1,5.5,2.14,6.7,6.7,0,0,1,2.3,5.05,6.91,6.91,0,0,1-2.3,5.12A7.63,7.63,0,0,1,497.06,475.19Z" transform="translate(-415.06 -441.25)"></path><path class="text-ks-600" d="M497.06,533.73a7.82,7.82,0,0,1-5.66-2.22,6.89,6.89,0,0,1-2.29-5.12,6.68,6.68,0,0,1,2.29-5,8,8,0,0,1,5.66-2.14,7.76,7.76,0,0,1,5.5,2.14,6.69,6.69,0,0,1,2.3,5,6.91,6.91,0,0,1-2.3,5.12A7.63,7.63,0,0,1,497.06,533.73Z" transform="translate(-415.06 -441.25)"></path><path class="text-ks-600" d="M497.06,553.25A7.82,7.82,0,0,1,491.4,551a6.93,6.93,0,0,1-2.29-5.12,6.69,6.69,0,0,1,2.29-5,8,8,0,0,1,5.66-2.14,7.81,7.81,0,0,1,5.5,2.14,6.7,6.7,0,0,1,2.3,5,6.94,6.94,0,0,1-2.3,5.12A7.63,7.63,0,0,1,497.06,553.25Z" transform="translate(-415.06 -441.25)"></path><path class="text-ks-600" d="M470.37,533.73a7.82,7.82,0,0,1-5.66-2.22,6.89,6.89,0,0,1-2.29-5.12,6.68,6.68,0,0,1,2.29-5,8,8,0,0,1,5.66-2.14,7.76,7.76,0,0,1,5.5,2.14,6.69,6.69,0,0,1,2.3,5,6.91,6.91,0,0,1-2.3,5.12A7.63,7.63,0,0,1,470.37,533.73Z" transform="translate(-415.06 -441.25)"></path><path class="text-ks-600" d="M471.64,514.22A7.83,7.83,0,0,1,466,512a6.91,6.91,0,0,1-2.29-5.12,6.69,6.69,0,0,1,2.29-5.05,8,8,0,0,1,5.66-2.14,7.79,7.79,0,0,1,5.5,2.14,6.7,6.7,0,0,1,2.3,5.05,6.92,6.92,0,0,1-2.3,5.12A7.61,7.61,0,0,1,471.64,514.22Z" transform="translate(-415.06 -441.25)"></path><path class="text-ks-600" d="M470.37,553.25a7.82,7.82,0,0,1-5.66-2.22,6.93,6.93,0,0,1-2.29-5.12,6.69,6.69,0,0,1,2.29-5,8,8,0,0,1,5.66-2.14,7.81,7.81,0,0,1,5.5,2.14,6.7,6.7,0,0,1,2.3,5,6.94,6.94,0,0,1-2.3,5.12A7.63,7.63,0,0,1,470.37,553.25Z" transform="translate(-415.06 -441.25)"></path><path class="text-white" d="M531.1,557.52a6.59,6.59,0,0,1-4.36-1.45,4.09,4.09,0,0,1-1.76-3.14V445.69a3.72,3.72,0,0,1,1.76-3.21,7.4,7.4,0,0,1,4.36-1.23,8.45,8.45,0,0,1,4.66,1.23,3.66,3.66,0,0,1,1.91,3.21v71.6l34.88-31.52a4.52,4.52,0,0,1,2.76-1.07,5.88,5.88,0,0,1,3,.84,7.87,7.87,0,0,1,2.45,2.22,4.91,4.91,0,0,1,1,2.91,4.74,4.74,0,0,1-.3,1.6,3.44,3.44,0,0,1-1.07,1.46l-21.27,18.81,25.4,36.87a3.89,3.89,0,0,1,.76,2.3,5.34,5.34,0,0,1-1.07,3.06,8.13,8.13,0,0,1-2.68,2.44,6.48,6.48,0,0,1-3.29.92,4.1,4.1,0,0,1-3.51-2L550.37,520.5l-12.7,11.32v21.11a4,4,0,0,1-1.91,3.14A7.48,7.48,0,0,1,531.1,557.52Z" transform="translate(-415.06 -441.25)"></path></svg>